<svg width="670" height="385" viewBox="0 0 670 385" fill="none" xmlns="http://www.w3.org/2000/svg">
<g filter="url(#filter0_d_6_168)">
<g clip-path="url(#clip0_6_168)">
<rect x="35" y="34.5024" width="600.131" height="315.497" rx="20" fill="#5FA5E5"/>
<circle opacity="0.2" cx="612.096" cy="49.1908" r="70.5366" transform="rotate(-5 612.096 49.1908)" fill="url(#paint0_linear_6_168)"/>
<circle opacity="0.2" cx="63.8431" cy="341.121" r="146.912" transform="rotate(-5 63.8431 341.121)" fill="url(#paint1_linear_6_168)"/>
<path d="M556.375 223.375L588.25 191.5L556.375 159.625M492.625 159.625L460.75 191.5L492.625 223.375M537.25 134.125L511.75 248.875" stroke="#7DB6EA" stroke-width="10" stroke-linecap="round" stroke-linejoin="round"/>
</g>
<circle cx="587.12" cy="65.3665" r="6.85864" fill="white"/>
<rect x="460.236" y="58.5078" width="109.738" height="13.7173" rx="6.85864" fill="white"/>
</g>
<path d="M133.691 146.543H116.901V165H109V119.877H136.901V127.161H116.901V139.445H133.691V146.543ZM160.179 134.383V141.358H157.401C151.969 141.358 148.574 144.259 148.574 150.185V165H141.043V134.568H148.142L148.574 139.013C149.87 135.988 152.772 133.951 156.846 133.951C157.895 133.951 158.944 134.074 160.179 134.383ZM162.461 149.692C162.461 140.185 169.313 133.642 178.758 133.642C188.202 133.642 195.054 140.185 195.054 149.692C195.054 159.198 188.202 165.741 178.758 165.741C169.313 165.741 162.461 159.198 162.461 149.692ZM169.992 149.692C169.992 155.247 173.572 159.012 178.758 159.012C183.943 159.012 187.523 155.247 187.523 149.692C187.523 144.136 183.943 140.371 178.758 140.371C173.572 140.371 169.992 144.136 169.992 149.692ZM208.554 165H201.023V134.506H207.998L208.616 138.457C210.529 135.371 214.233 133.581 218.368 133.581C226.023 133.581 229.973 138.334 229.973 146.235V165H222.443V148.025C222.443 142.901 219.912 140.432 216.023 140.432C211.393 140.432 208.554 143.642 208.554 148.58V165ZM247.743 165H240.212V140.803H234.348V134.506H240.212V125H247.743V134.506H253.669V140.803H247.743V165ZM304.123 165H276.099V119.877H304.123V127.161H284V138.766H302.025V145.741H284V157.716H304.123V165ZM319.109 165H311.578V134.506H318.554L319.171 138.457C321.084 135.371 324.788 133.581 328.924 133.581C336.578 133.581 340.529 138.334 340.529 146.235V165H332.998V148.025C332.998 142.901 330.467 140.432 326.578 140.432C321.949 140.432 319.109 143.642 319.109 148.58V165ZM360.459 165.802C351.631 165.802 346.138 159.321 346.138 149.877C346.138 140.371 351.693 133.581 360.891 133.581C365.15 133.581 368.915 135.371 370.829 138.395V119.075H378.298V165H371.384L370.891 160.247C369.039 163.765 365.088 165.802 360.459 165.802ZM362.125 158.889C367.372 158.889 370.767 155.124 370.767 149.63C370.767 144.136 367.372 140.309 362.125 140.309C356.878 140.309 353.668 144.198 353.668 149.63C353.668 155.062 356.878 158.889 362.125 158.889Z" fill="white"/>
<path d="M106.688 221V197.864H115.52C120.032 197.864 122.784 200.168 122.784 203.976C122.784 206.632 121.632 208.424 119.328 209.384C121.888 210.216 123.2 212.072 123.2 214.824C123.2 218.664 120.416 221 115.84 221H106.688ZM115.328 200.648H109.824V208.072H115.52C118.112 208.072 119.584 206.664 119.584 204.264C119.584 201.96 118.048 200.648 115.328 200.648ZM115.776 210.792H109.824V218.216H115.776C118.464 218.216 119.968 216.84 119.968 214.44C119.968 212.136 118.432 210.792 115.776 210.792ZM137.43 205.352H140.406V221H137.718L137.398 218.632C136.502 220.264 134.422 221.384 132.118 221.384C128.47 221.384 126.422 218.92 126.422 215.08V205.352H129.43V214.088C129.43 217.448 130.87 218.728 133.174 218.728C135.926 218.728 137.43 216.968 137.43 213.608V205.352ZM146.242 201.64C145.154 201.64 144.258 200.744 144.258 199.656C144.258 198.536 145.154 197.672 146.242 197.672C147.33 197.672 148.226 198.536 148.226 199.656C148.226 200.744 147.33 201.64 146.242 201.64ZM144.77 221V205.352H147.778V221H144.77ZM155.217 221H152.209V197.448H155.217V221ZM165.917 221.384C161.373 221.384 158.621 217.992 158.621 213.224C158.621 208.424 161.405 204.904 166.045 204.904C168.445 204.904 170.461 205.96 171.517 207.88V197.448H174.493V221H171.805L171.549 218.152C170.525 220.296 168.413 221.384 165.917 221.384ZM166.525 218.664C169.597 218.664 171.485 216.392 171.485 213.128C171.485 209.928 169.597 207.624 166.525 207.624C163.453 207.624 161.661 209.928 161.661 213.128C161.661 216.36 163.453 218.664 166.525 218.664ZM180.304 201.64C179.216 201.64 178.32 200.744 178.32 199.656C178.32 198.536 179.216 197.672 180.304 197.672C181.392 197.672 182.288 198.536 182.288 199.656C182.288 200.744 181.392 201.64 180.304 201.64ZM178.832 221V205.352H181.84V221H178.832ZM189.215 221H186.207V205.352H188.927L189.247 207.752C190.239 205.96 192.223 204.904 194.431 204.904C198.559 204.904 200.447 207.432 200.447 211.432V221H197.439V212.104C197.439 208.936 195.967 207.656 193.663 207.656C190.847 207.656 189.215 209.672 189.215 212.712V221ZM203.622 212.776C203.622 208.36 206.47 204.904 211.014 204.904C213.542 204.904 215.494 206.056 216.486 208.008L216.71 205.352H219.398V220.36C219.398 225.288 216.358 228.424 211.558 228.424C207.302 228.424 204.39 226.024 203.814 222.056H206.822C207.206 224.36 208.934 225.704 211.558 225.704C214.502 225.704 216.422 223.784 216.422 220.808V217.672C215.398 219.496 213.35 220.584 210.885 220.584C206.438 220.584 203.622 217.16 203.622 212.776ZM206.63 212.712C206.63 215.656 208.454 217.96 211.398 217.96C214.438 217.96 216.294 215.784 216.294 212.712C216.294 209.704 214.502 207.528 211.43 207.528C208.422 207.528 206.63 209.832 206.63 212.712ZM236.905 221H233.897V207.88H230.825V205.352H233.897V200.456H236.905V205.352H239.977V207.88H236.905V221ZM245.684 220.968H242.676V197.448H245.684V207.752C246.676 206.056 248.564 204.904 250.996 204.904C254.996 204.904 256.916 207.432 256.916 211.432V221H253.908V212.104C253.908 208.936 252.404 207.656 250.164 207.656C247.252 207.656 245.684 209.768 245.684 212.456V220.968ZM267.834 221.384C263.226 221.384 260.058 218.056 260.058 213.192C260.058 208.296 263.162 204.904 267.706 204.904C272.154 204.904 275.066 207.976 275.066 212.616V213.736L262.97 213.768C263.194 217.064 264.922 218.888 267.898 218.888C270.234 218.888 271.77 217.928 272.282 216.136H275.098C274.33 219.496 271.706 221.384 267.834 221.384ZM267.706 207.432C265.082 207.432 263.418 209 263.034 211.752H272.058C272.058 209.16 270.362 207.432 267.706 207.432ZM291.56 221L285.256 205.352H288.456L291.88 214.088C292.424 215.56 292.872 216.872 293.128 217.832C293.384 216.808 293.896 215.464 294.44 214.088L297.928 205.352H301.064L294.536 221H291.56ZM304.929 201.64C303.841 201.64 302.945 200.744 302.945 199.656C302.945 198.536 303.841 197.672 304.929 197.672C306.017 197.672 306.913 198.536 306.913 199.656C306.913 200.744 306.017 201.64 304.929 201.64ZM303.457 221V205.352H306.465V221H303.457ZM309.552 216.456H312.432C312.432 218.056 313.648 219.016 315.632 219.016C317.744 219.016 318.96 218.152 318.96 216.712C318.96 215.656 318.448 215.016 316.816 214.6L314.064 213.96C311.28 213.288 309.968 211.912 309.968 209.608C309.968 206.728 312.4 204.904 315.856 204.904C319.28 204.904 321.52 206.824 321.584 209.8H318.704C318.64 208.232 317.584 207.24 315.76 207.24C313.872 207.24 312.816 208.072 312.816 209.512C312.816 210.568 313.584 211.272 315.12 211.656L317.872 212.328C320.528 212.968 321.84 214.184 321.84 216.52C321.84 219.496 319.28 221.384 315.568 221.384C311.888 221.384 309.552 219.432 309.552 216.456ZM326.648 201.64C325.56 201.64 324.664 200.744 324.664 199.656C324.664 198.536 325.56 197.672 326.648 197.672C327.736 197.672 328.632 198.536 328.632 199.656C328.632 200.744 327.736 201.64 326.648 201.64ZM325.176 221V205.352H328.184V221H325.176ZM335.271 221H332.551V197.448H335.559V208.04C336.583 205.992 338.695 204.904 341.255 204.904C345.735 204.904 348.423 208.424 348.423 213.256C348.423 217.992 345.607 221.384 341.063 221.384C338.599 221.384 336.519 220.296 335.495 218.152L335.271 221ZM335.591 213.128C335.591 216.392 337.447 218.664 340.519 218.664C343.591 218.664 345.415 216.36 345.415 213.128C345.415 209.928 343.591 207.624 340.519 207.624C337.447 207.624 335.591 209.928 335.591 213.128ZM354.811 221H351.803V197.448H354.811V221ZM365.991 221.384C361.383 221.384 358.215 218.056 358.215 213.192C358.215 208.296 361.319 204.904 365.863 204.904C370.311 204.904 373.222 207.976 373.222 212.616V213.736L361.127 213.768C361.351 217.064 363.079 218.888 366.055 218.888C368.391 218.888 369.927 217.928 370.439 216.136H373.255C372.487 219.496 369.863 221.384 365.991 221.384ZM365.863 207.432C363.239 207.432 361.575 209 361.191 211.752H370.215C370.215 209.16 368.519 207.432 365.863 207.432ZM385.332 228.008V205.352H388.052L388.276 208.168C389.332 206.024 391.444 204.904 393.94 204.904C398.42 204.904 401.204 208.264 401.204 213.064C401.204 217.832 398.58 221.416 393.94 221.416C391.444 221.416 389.364 220.36 388.34 218.44V228.008H385.332ZM388.372 213.192C388.372 216.392 390.228 218.696 393.3 218.696C396.372 218.696 398.196 216.392 398.196 213.192C398.196 209.96 396.372 207.656 393.3 207.656C390.228 207.656 388.372 209.928 388.372 213.192ZM409.096 221.384C405.736 221.384 403.752 219.496 403.752 216.648C403.752 213.768 405.896 211.976 409.576 211.688L414.504 211.304V210.856C414.504 208.232 412.936 207.304 410.824 207.304C408.296 207.304 406.856 208.424 406.856 210.312H404.232C404.232 207.048 406.92 204.904 410.952 204.904C414.824 204.904 417.448 206.952 417.448 211.176V221H414.888L414.568 218.472C413.768 220.264 411.624 221.384 409.096 221.384ZM409.96 219.048C412.808 219.048 414.536 217.192 414.536 214.248V213.416L410.536 213.736C407.88 213.992 406.792 215.016 406.792 216.552C406.792 218.216 408.008 219.048 409.96 219.048ZM430.574 205.224V207.976H429.23C426.382 207.976 424.622 209.704 424.622 212.712V221H421.614V205.384H424.43L424.622 207.752C425.262 206.12 426.83 205.032 428.974 205.032C429.518 205.032 429.966 205.096 430.574 205.224ZM438.436 221H435.428V207.88H432.356V205.352H435.428V200.456H438.436V205.352H441.508V207.88H438.436V221ZM442.927 216.456H445.807C445.807 218.056 447.023 219.016 449.007 219.016C451.119 219.016 452.335 218.152 452.335 216.712C452.335 215.656 451.823 215.016 450.191 214.6L447.439 213.96C444.655 213.288 443.343 211.912 443.343 209.608C443.343 206.728 445.775 204.904 449.231 204.904C452.655 204.904 454.895 206.824 454.959 209.8H452.079C452.015 208.232 450.959 207.24 449.135 207.24C447.247 207.24 446.191 208.072 446.191 209.512C446.191 210.568 446.959 211.272 448.495 211.656L451.247 212.328C453.903 212.968 455.215 214.184 455.215 216.52C455.215 219.496 452.655 221.384 448.943 221.384C445.263 221.384 442.927 219.432 442.927 216.456ZM466.277 213.16C466.277 208.328 469.733 204.936 474.437 204.936C479.109 204.936 482.565 208.328 482.565 213.16C482.565 217.992 479.109 221.384 474.437 221.384C469.733 221.384 466.277 217.992 466.277 213.16ZM469.317 213.16C469.317 216.424 471.397 218.696 474.437 218.696C477.445 218.696 479.557 216.424 479.557 213.16C479.557 209.896 477.445 207.624 474.437 207.624C471.397 207.624 469.317 209.896 469.317 213.16ZM484.137 205.352H486.441V202.856C486.441 199.016 488.553 197.448 491.401 197.448C491.977 197.448 492.649 197.48 493.257 197.576V200.168H491.913C489.961 200.168 489.449 201.16 489.449 202.856V205.352H493.161V207.88H489.449V221H486.441V207.88H484.137V205.352ZM509.283 221.384C505.923 221.384 503.939 219.496 503.939 216.648C503.939 213.768 506.083 211.976 509.763 211.688L514.691 211.304V210.856C514.691 208.232 513.123 207.304 511.011 207.304C508.483 207.304 507.043 208.424 507.043 210.312H504.419C504.419 207.048 507.107 204.904 511.139 204.904C515.011 204.904 517.635 206.952 517.635 211.176V221H515.075L514.755 218.472C513.955 220.264 511.811 221.384 509.283 221.384ZM510.147 219.048C512.995 219.048 514.723 217.192 514.723 214.248V213.416L510.723 213.736C508.067 213.992 506.979 215.016 506.979 216.552C506.979 218.216 508.195 219.048 510.147 219.048ZM109.536 255L104.416 239.352H107.52L110.112 247.48C110.464 248.632 110.784 249.816 111.072 251.192C111.328 249.816 111.744 248.504 112.096 247.48L114.72 239.352H117.792L120.384 247.48C120.64 248.248 121.152 250.072 121.408 251.192C121.664 249.944 121.952 248.856 122.4 247.48L125.024 239.352H128.16L122.816 255H119.968L117.248 246.616C116.736 245.048 116.416 243.832 116.256 242.968C116.096 243.736 115.808 244.76 115.232 246.648L112.512 255H109.536ZM136.772 255.384C132.164 255.384 128.996 252.056 128.996 247.192C128.996 242.296 132.1 238.904 136.644 238.904C141.092 238.904 144.004 241.976 144.004 246.616V247.736L131.908 247.768C132.132 251.064 133.86 252.888 136.836 252.888C139.172 252.888 140.708 251.928 141.22 250.136H144.036C143.268 253.496 140.644 255.384 136.772 255.384ZM136.644 241.432C134.02 241.432 132.356 243 131.972 245.752H140.996C140.996 243.16 139.3 241.432 136.644 241.432ZM150.084 255H147.364V231.448H150.372V242.04C151.396 239.992 153.508 238.904 156.068 238.904C160.548 238.904 163.236 242.424 163.236 247.256C163.236 251.992 160.42 255.384 155.876 255.384C153.411 255.384 151.332 254.296 150.308 252.152L150.084 255ZM150.404 247.128C150.404 250.392 152.26 252.664 155.332 252.664C158.404 252.664 160.228 250.36 160.228 247.128C160.228 243.928 158.404 241.624 155.332 241.624C152.26 241.624 150.404 243.928 150.404 247.128ZM165.271 250.456H168.151C168.151 252.056 169.367 253.016 171.351 253.016C173.463 253.016 174.679 252.152 174.679 250.712C174.679 249.656 174.167 249.016 172.535 248.6L169.783 247.96C166.999 247.288 165.687 245.912 165.687 243.608C165.687 240.728 168.119 238.904 171.575 238.904C174.999 238.904 177.239 240.824 177.303 243.8H174.423C174.359 242.232 173.303 241.24 171.479 241.24C169.591 241.24 168.535 242.072 168.535 243.512C168.535 244.568 169.303 245.272 170.839 245.656L173.591 246.328C176.247 246.968 177.559 248.184 177.559 250.52C177.559 253.496 174.999 255.384 171.287 255.384C167.607 255.384 165.271 253.432 165.271 250.456ZM182.367 235.64C181.279 235.64 180.383 234.744 180.383 233.656C180.383 232.536 181.279 231.672 182.367 231.672C183.455 231.672 184.351 232.536 184.351 233.656C184.351 234.744 183.455 235.64 182.367 235.64ZM180.895 255V239.352H183.903V255H180.895ZM192.686 255H189.678V241.88H186.606V239.352H189.678V234.456H192.686V239.352H195.758V241.88H192.686V255ZM205.053 255.384C200.445 255.384 197.277 252.056 197.277 247.192C197.277 242.296 200.381 238.904 204.925 238.904C209.373 238.904 212.285 241.976 212.285 246.616V247.736L200.189 247.768C200.413 251.064 202.141 252.888 205.117 252.888C207.453 252.888 208.989 251.928 209.501 250.136H212.317C211.549 253.496 208.925 255.384 205.053 255.384ZM204.925 241.432C202.301 241.432 200.637 243 200.253 245.752H209.277C209.277 243.16 207.581 241.432 204.925 241.432ZM223.371 247.16C223.371 242.328 226.827 238.936 231.531 238.936C236.203 238.936 239.659 242.328 239.659 247.16C239.659 251.992 236.203 255.384 231.531 255.384C226.827 255.384 223.371 251.992 223.371 247.16ZM226.411 247.16C226.411 250.424 228.491 252.696 231.531 252.696C234.539 252.696 236.651 250.424 236.651 247.16C236.651 243.896 234.539 241.624 231.531 241.624C228.491 241.624 226.411 243.896 226.411 247.16ZM251.949 239.224V241.976H250.605C247.757 241.976 245.997 243.704 245.997 246.712V255H242.989V239.384H245.805L245.997 241.752C246.637 240.12 248.205 239.032 250.349 239.032C250.893 239.032 251.341 239.096 251.949 239.224ZM266.88 255L261.76 239.352H264.864L267.456 247.48C267.808 248.632 268.128 249.816 268.416 251.192C268.672 249.816 269.088 248.504 269.44 247.48L272.064 239.352H275.136L277.728 247.48C277.984 248.248 278.496 250.072 278.752 251.192C279.008 249.944 279.296 248.856 279.744 247.48L282.368 239.352H285.504L280.16 255H277.312L274.592 246.616C274.08 245.048 273.76 243.832 273.6 242.968C273.44 243.736 273.152 244.76 272.576 246.648L269.856 255H266.88ZM294.116 255.384C289.508 255.384 286.34 252.056 286.34 247.192C286.34 242.296 289.444 238.904 293.988 238.904C298.436 238.904 301.347 241.976 301.347 246.616V247.736L289.252 247.768C289.476 251.064 291.204 252.888 294.18 252.888C296.516 252.888 298.052 251.928 298.564 250.136H301.38C300.612 253.496 297.988 255.384 294.116 255.384ZM293.988 241.432C291.364 241.432 289.7 243 289.316 245.752H298.34C298.34 243.16 296.644 241.432 293.988 241.432ZM307.427 255H304.707V231.448H307.715V242.04C308.739 239.992 310.851 238.904 313.411 238.904C317.891 238.904 320.579 242.424 320.579 247.256C320.579 251.992 317.763 255.384 313.219 255.384C310.755 255.384 308.675 254.296 307.651 252.152L307.427 255ZM307.747 247.128C307.747 250.392 309.603 252.664 312.675 252.664C315.747 252.664 317.571 250.36 317.571 247.128C317.571 243.928 315.747 241.624 312.675 241.624C309.603 241.624 307.747 243.928 307.747 247.128ZM337.221 255.384C333.861 255.384 331.877 253.496 331.877 250.648C331.877 247.768 334.021 245.976 337.701 245.688L342.629 245.304V244.856C342.629 242.232 341.061 241.304 338.949 241.304C336.421 241.304 334.981 242.424 334.981 244.312H332.357C332.357 241.048 335.045 238.904 339.077 238.904C342.949 238.904 345.573 240.952 345.573 245.176V255H343.013L342.693 252.472C341.893 254.264 339.749 255.384 337.221 255.384ZM338.085 253.048C340.933 253.048 342.661 251.192 342.661 248.248V247.416L338.661 247.736C336.005 247.992 334.917 249.016 334.917 250.552C334.917 252.216 336.133 253.048 338.085 253.048ZM349.739 262.008V239.352H352.459L352.683 242.168C353.739 240.024 355.851 238.904 358.347 238.904C362.827 238.904 365.611 242.264 365.611 247.064C365.611 251.832 362.987 255.416 358.347 255.416C355.851 255.416 353.771 254.36 352.747 252.44V262.008H349.739ZM352.779 247.192C352.779 250.392 354.635 252.696 357.707 252.696C360.779 252.696 362.603 250.392 362.603 247.192C362.603 243.96 360.779 241.656 357.707 241.656C354.635 241.656 352.779 243.928 352.779 247.192ZM368.926 262.008V239.352H371.646L371.87 242.168C372.926 240.024 375.038 238.904 377.534 238.904C382.014 238.904 384.798 242.264 384.798 247.064C384.798 251.832 382.174 255.416 377.534 255.416C375.038 255.416 372.958 254.36 371.934 252.44V262.008H368.926ZM371.966 247.192C371.966 250.392 373.822 252.696 376.894 252.696C379.966 252.696 381.79 250.392 381.79 247.192C381.79 243.96 379.966 241.656 376.894 241.656C373.822 241.656 371.966 243.928 371.966 247.192ZM391.186 255H388.178V231.448H391.186V255ZM397.086 235.64C395.998 235.64 395.102 234.744 395.102 233.656C395.102 232.536 395.998 231.672 397.086 231.672C398.174 231.672 399.07 232.536 399.07 233.656C399.07 234.744 398.174 235.64 397.086 235.64ZM395.614 255V239.352H398.622V255H395.614ZM401.965 247.192C401.965 242.296 405.069 238.904 409.645 238.904C413.581 238.904 416.333 241.144 416.877 244.632H413.869C413.357 242.648 411.757 241.592 409.741 241.592C406.893 241.592 404.941 243.768 404.941 247.16C404.941 250.52 406.765 252.696 409.613 252.696C411.757 252.696 413.357 251.576 413.901 249.72H416.909C416.301 253.112 413.389 255.384 409.613 255.384C405.005 255.384 401.965 252.12 401.965 247.192ZM424.658 255.384C421.298 255.384 419.314 253.496 419.314 250.648C419.314 247.768 421.458 245.976 425.138 245.688L430.066 245.304V244.856C430.066 242.232 428.498 241.304 426.386 241.304C423.858 241.304 422.418 242.424 422.418 244.312H419.794C419.794 241.048 422.482 238.904 426.514 238.904C430.386 238.904 433.01 240.952 433.01 245.176V255H430.45L430.13 252.472C429.33 254.264 427.186 255.384 424.658 255.384ZM425.522 253.048C428.37 253.048 430.098 251.192 430.098 248.248V247.416L426.098 247.736C423.442 247.992 422.354 249.016 422.354 250.552C422.354 252.216 423.57 253.048 425.522 253.048ZM441.342 255H438.334V241.88H435.262V239.352H438.334V234.456H441.342V239.352H444.414V241.88H441.342V255ZM448.586 235.64C447.498 235.64 446.602 234.744 446.602 233.656C446.602 232.536 447.498 231.672 448.586 231.672C449.674 231.672 450.57 232.536 450.57 233.656C450.57 234.744 449.674 235.64 448.586 235.64ZM447.114 255V239.352H450.122V255H447.114ZM453.465 247.16C453.465 242.328 456.921 238.936 461.625 238.936C466.297 238.936 469.753 242.328 469.753 247.16C469.753 251.992 466.297 255.384 461.625 255.384C456.921 255.384 453.465 251.992 453.465 247.16ZM456.505 247.16C456.505 250.424 458.585 252.696 461.625 252.696C464.633 252.696 466.745 250.424 466.745 247.16C466.745 243.896 464.633 241.624 461.625 241.624C458.585 241.624 456.505 243.896 456.505 247.16ZM476.09 255H473.082V239.352H475.802L476.122 241.752C477.114 239.96 479.098 238.904 481.306 238.904C485.434 238.904 487.322 241.432 487.322 245.432V255H484.314V246.104C484.314 242.936 482.842 241.656 480.538 241.656C477.722 241.656 476.09 243.672 476.09 246.712V255ZM504.655 255H501.647V241.88H498.575V239.352H501.647V234.456H504.655V239.352H507.727V241.88H504.655V255ZM513.434 254.968H510.426V231.448H513.434V241.752C514.426 240.056 516.314 238.904 518.746 238.904C522.746 238.904 524.666 241.432 524.666 245.432V255H521.658V246.104C521.658 242.936 520.154 241.656 517.914 241.656C515.002 241.656 513.434 243.768 513.434 246.456V254.968ZM533.408 255.384C530.048 255.384 528.064 253.496 528.064 250.648C528.064 247.768 530.208 245.976 533.888 245.688L538.816 245.304V244.856C538.816 242.232 537.248 241.304 535.136 241.304C532.608 241.304 531.168 242.424 531.168 244.312H528.544C528.544 241.048 531.232 238.904 535.264 238.904C539.136 238.904 541.76 240.952 541.76 245.176V255H539.2L538.88 252.472C538.08 254.264 535.936 255.384 533.408 255.384ZM534.272 253.048C537.12 253.048 538.848 251.192 538.848 248.248V247.416L534.848 247.736C532.192 247.992 531.104 249.016 531.104 250.552C531.104 252.216 532.32 253.048 534.272 253.048ZM550.092 255H547.084V241.88H544.012V239.352H547.084V234.456H550.092V239.352H553.164V241.88H550.092V255ZM116.992 273.352H119.968V289H117.28L116.96 286.632C116.064 288.264 113.984 289.384 111.68 289.384C108.032 289.384 105.984 286.92 105.984 283.08V273.352H108.992V282.088C108.992 285.448 110.432 286.728 112.736 286.728C115.488 286.728 116.992 284.968 116.992 281.608V273.352ZM122.74 284.456H125.62C125.62 286.056 126.836 287.016 128.82 287.016C130.932 287.016 132.148 286.152 132.148 284.712C132.148 283.656 131.636 283.016 130.004 282.6L127.252 281.96C124.468 281.288 123.156 279.912 123.156 277.608C123.156 274.728 125.588 272.904 129.044 272.904C132.468 272.904 134.708 274.824 134.772 277.8H131.892C131.828 276.232 130.772 275.24 128.948 275.24C127.06 275.24 126.004 276.072 126.004 277.512C126.004 278.568 126.772 279.272 128.308 279.656L131.06 280.328C133.716 280.968 135.028 282.184 135.028 284.52C135.028 287.496 132.468 289.384 128.756 289.384C125.076 289.384 122.74 287.432 122.74 284.456ZM145.116 289.384C140.508 289.384 137.34 286.056 137.34 281.192C137.34 276.296 140.444 272.904 144.988 272.904C149.436 272.904 152.347 275.976 152.347 280.616V281.736L140.252 281.768C140.476 285.064 142.204 286.888 145.18 286.888C147.516 286.888 149.052 285.928 149.564 284.136H152.38C151.612 287.496 148.988 289.384 145.116 289.384ZM144.988 275.432C142.364 275.432 140.7 277 140.316 279.752H149.34C149.34 277.16 147.644 275.432 144.988 275.432ZM164.667 273.224V275.976H163.323C160.475 275.976 158.715 277.704 158.715 280.712V289H155.707V273.384H158.523L158.715 275.752C159.355 274.12 160.923 273.032 163.067 273.032C163.611 273.032 164.059 273.096 164.667 273.224ZM166.209 284.456H169.089C169.089 286.056 170.305 287.016 172.289 287.016C174.401 287.016 175.617 286.152 175.617 284.712C175.617 283.656 175.105 283.016 173.473 282.6L170.721 281.96C167.937 281.288 166.625 279.912 166.625 277.608C166.625 274.728 169.057 272.904 172.513 272.904C175.937 272.904 178.177 274.824 178.241 277.8H175.361C175.297 276.232 174.241 275.24 172.417 275.24C170.529 275.24 169.473 276.072 169.473 277.512C169.473 278.568 170.241 279.272 171.777 279.656L174.529 280.328C177.185 280.968 178.497 282.184 178.497 284.52C178.497 287.496 175.937 289.384 172.225 289.384C168.545 289.384 166.209 287.432 166.209 284.456ZM192.054 269.64C190.966 269.64 190.07 268.744 190.07 267.656C190.07 266.536 190.966 265.672 192.054 265.672C193.142 265.672 194.038 266.536 194.038 267.656C194.038 268.744 193.142 269.64 192.054 269.64ZM190.582 289V273.352H193.59V289H190.582ZM200.965 289H197.957V273.352H200.677L200.997 275.752C201.989 273.96 203.973 272.904 206.181 272.904C210.309 272.904 212.197 275.432 212.197 279.432V289H209.189V280.104C209.189 276.936 207.717 275.656 205.413 275.656C202.597 275.656 200.965 277.672 200.965 280.712V289ZM220.78 289H217.772V275.88H214.7V273.352H217.772V268.456H220.78V273.352H223.852V275.88H220.78V289ZM233.147 289.384C228.539 289.384 225.371 286.056 225.371 281.192C225.371 276.296 228.475 272.904 233.019 272.904C237.467 272.904 240.379 275.976 240.379 280.616V281.736L228.283 281.768C228.507 285.064 230.235 286.888 233.211 286.888C235.547 286.888 237.083 285.928 237.595 284.136H240.411C239.643 287.496 237.019 289.384 233.147 289.384ZM233.019 275.432C230.395 275.432 228.731 277 228.347 279.752H237.371C237.371 277.16 235.675 275.432 233.019 275.432ZM252.699 273.224V275.976H251.355C248.507 275.976 246.747 277.704 246.747 280.712V289H243.739V273.384H246.555L246.747 275.752C247.387 274.12 248.955 273.032 251.099 273.032C251.643 273.032 252.091 273.096 252.699 273.224ZM259.471 289.384C256.111 289.384 254.127 287.496 254.127 284.648C254.127 281.768 256.271 279.976 259.951 279.688L264.879 279.304V278.856C264.879 276.232 263.311 275.304 261.199 275.304C258.671 275.304 257.231 276.424 257.231 278.312H254.607C254.607 275.048 257.295 272.904 261.327 272.904C265.199 272.904 267.823 274.952 267.823 279.176V289H265.263L264.943 286.472C264.143 288.264 261.999 289.384 259.471 289.384ZM260.335 287.048C263.183 287.048 264.911 285.192 264.911 282.248V281.416L260.911 281.736C258.255 281.992 257.167 283.016 257.167 284.552C257.167 286.216 258.383 287.048 260.335 287.048ZM270.965 281.192C270.965 276.296 274.069 272.904 278.645 272.904C282.581 272.904 285.333 275.144 285.877 278.632H282.869C282.357 276.648 280.757 275.592 278.741 275.592C275.893 275.592 273.941 277.768 273.941 281.16C273.941 284.52 275.765 286.696 278.613 286.696C280.757 286.696 282.357 285.576 282.901 283.72H285.909C285.301 287.112 282.389 289.384 278.613 289.384C274.005 289.384 270.965 286.12 270.965 281.192ZM293.498 289H290.49V275.88H287.418V273.352H290.49V268.456H293.498V273.352H296.57V275.88H293.498V289ZM311.38 289L306.26 273.352H309.364L311.956 281.48C312.308 282.632 312.628 283.816 312.916 285.192C313.172 283.816 313.588 282.504 313.94 281.48L316.564 273.352H319.636L322.228 281.48C322.484 282.248 322.996 284.072 323.252 285.192C323.508 283.944 323.796 282.856 324.244 281.48L326.868 273.352H330.004L324.66 289H321.812L319.092 280.616C318.58 279.048 318.26 277.832 318.1 276.968C317.94 277.736 317.652 278.76 317.076 280.648L314.356 289H311.38ZM334.054 269.64C332.966 269.64 332.07 268.744 332.07 267.656C332.07 266.536 332.966 265.672 334.054 265.672C335.142 265.672 336.038 266.536 336.038 267.656C336.038 268.744 335.142 269.64 334.054 269.64ZM332.582 289V273.352H335.59V289H332.582ZM344.373 289H341.365V275.88H338.293V273.352H341.365V268.456H344.373V273.352H347.445V275.88H344.373V289ZM353.153 288.968H350.145V265.448H353.153V275.752C354.145 274.056 356.033 272.904 358.465 272.904C362.465 272.904 364.385 275.432 364.385 279.432V289H361.377V280.104C361.377 276.936 359.873 275.656 357.633 275.656C354.721 275.656 353.153 277.768 353.153 280.456V288.968ZM383.573 289.384C379.029 289.384 376.277 285.992 376.277 281.224C376.277 276.424 379.061 272.904 383.701 272.904C386.101 272.904 388.117 273.96 389.173 275.88V265.448H392.149V289H389.461L389.205 286.152C388.181 288.296 386.069 289.384 383.573 289.384ZM384.181 286.664C387.253 286.664 389.141 284.392 389.141 281.128C389.141 277.928 387.253 275.624 384.181 275.624C381.109 275.624 379.317 277.928 379.317 281.128C379.317 284.36 381.109 286.664 384.181 286.664ZM397.961 269.64C396.873 269.64 395.977 268.744 395.977 267.656C395.977 266.536 396.873 265.672 397.961 265.672C399.049 265.672 399.945 266.536 399.945 267.656C399.945 268.744 399.049 269.64 397.961 269.64ZM396.489 289V273.352H399.497V289H396.489ZM412.824 273.224V275.976H411.48C408.632 275.976 406.872 277.704 406.872 280.712V289H403.864V273.384H406.68L406.872 275.752C407.512 274.12 409.08 273.032 411.224 273.032C411.768 273.032 412.216 273.096 412.824 273.224ZM421.834 289.384C417.226 289.384 414.058 286.056 414.058 281.192C414.058 276.296 417.162 272.904 421.706 272.904C426.154 272.904 429.066 275.976 429.066 280.616V281.736L416.97 281.768C417.194 285.064 418.922 286.888 421.898 286.888C424.234 286.888 425.77 285.928 426.282 284.136H429.098C428.33 287.496 425.706 289.384 421.834 289.384ZM421.706 275.432C419.082 275.432 417.418 277 417.034 279.752H426.058C426.058 277.16 424.362 275.432 421.706 275.432ZM431.402 281.192C431.402 276.296 434.506 272.904 439.082 272.904C443.018 272.904 445.77 275.144 446.314 278.632H443.306C442.794 276.648 441.194 275.592 439.178 275.592C436.33 275.592 434.378 277.768 434.378 281.16C434.378 284.52 436.202 286.696 439.05 286.696C441.194 286.696 442.794 285.576 443.338 283.72H446.346C445.738 287.112 442.826 289.384 439.05 289.384C434.442 289.384 431.402 286.12 431.402 281.192ZM453.936 289H450.928V275.88H447.856V273.352H450.928V268.456H453.936V273.352H457.008V275.88H453.936V289ZM462.779 289H459.771V265.448H462.779V289ZM465.703 296.008V293.544H467.719C469.159 293.544 470.311 293.32 471.047 291.336L471.591 289.832L465.287 273.352H468.455L472.999 285.96L477.639 273.352H480.743L473.351 292.52C472.295 295.208 470.727 296.328 468.327 296.328C467.335 296.328 466.503 296.2 465.703 296.008ZM482.729 289.384C481.481 289.384 480.424 288.36 480.424 287.144C480.424 285.896 481.481 284.872 482.729 284.872C483.945 284.872 485.001 285.896 485.001 287.144C485.001 288.36 483.945 289.384 482.729 289.384Z" fill="white" fill-opacity="0.7"/>
<defs>
<filter id="filter0_d_6_168" x="0.70681" y="0.209251" width="668.717" height="384.084" filterUnits="userSpaceOnUse" color-interpolation-filters="sRGB">
<feFlood flood-opacity="0" result="BackgroundImageFix"/>
<feColorMatrix in="SourceAlpha" type="matrix" values="0 0 0 0 0 0 0 0 0 0 0 0 0 0 0 0 0 0 127 0" result="hardAlpha"/>
<feOffset/>
<feGaussianBlur stdDeviation="17.1466"/>
<feComposite in2="hardAlpha" operator="out"/>
<feColorMatrix type="matrix" values="0 0 0 0 0.372549 0 0 0 0 0.647059 0 0 0 0 0.898039 0 0 0 0.4 0"/>
<feBlend mode="normal" in2="BackgroundImageFix" result="effect1_dropShadow_6_168"/>
<feBlend mode="normal" in="SourceGraphic" in2="effect1_dropShadow_6_168" result="shape"/>
</filter>
<linearGradient id="paint0_linear_6_168" x1="612.096" y1="-21.3458" x2="639.379" y2="119.727" gradientUnits="userSpaceOnUse">
<stop stop-color="white"/>
<stop offset="1" stop-color="white" stop-opacity="0.23"/>
</linearGradient>
<linearGradient id="paint1_linear_6_168" x1="63.8431" y1="194.209" x2="120.668" y2="488.033" gradientUnits="userSpaceOnUse">
<stop stop-color="white"/>
<stop offset="1" stop-color="white" stop-opacity="0.23"/>
</linearGradient>
<clipPath id="clip0_6_168">
<rect x="35" y="34.5024" width="600.131" height="315.497" rx="20" fill="white"/>
</clipPath>
</defs>
</svg>
