<svg width="670" height="385" viewBox="0 0 670 385" fill="none" xmlns="http://www.w3.org/2000/svg">
<g filter="url(#filter0_d_6_189)">
<g clip-path="url(#clip0_6_189)">
<rect x="35.2775" y="35" width="600.131" height="315.497" rx="20" fill="#69B499"/>
<circle opacity="0.2" cx="612.374" cy="49.6883" r="70.5366" transform="rotate(-5 612.374 49.6883)" fill="url(#paint0_linear_6_189)"/>
<circle opacity="0.2" cx="64.1206" cy="341.618" r="146.912" transform="rotate(-5 64.1206 341.618)" fill="url(#paint1_linear_6_189)"/>
<path fill-rule="evenodd" clip-rule="evenodd" d="M523.21 235.143C524.228 237.051 525.247 238.77 526.222 240.294C515.868 237.966 506.884 232.019 500.668 223.852C504.771 221.541 510.026 219.146 516.343 217.394C518.138 224.436 520.671 230.384 523.21 235.143ZM531.041 230.966C528.836 226.832 526.626 221.67 525.033 215.552C528.461 215.043 532.12 214.75 536.001 214.75C539.881 214.75 543.54 215.043 546.967 215.552C545.374 221.67 543.164 226.832 540.959 230.966C539.191 234.282 537.43 236.928 536 238.865C534.57 236.928 532.809 234.282 531.041 230.966ZM522.687 197C522.687 200.456 522.92 203.736 523.33 206.833C527.284 206.226 531.512 205.875 536.001 205.875C540.489 205.875 544.716 206.226 548.67 206.833C549.08 203.736 549.312 200.456 549.312 197C549.312 193.544 549.08 190.264 548.67 187.167C544.716 187.774 540.489 188.125 536.001 188.125C531.512 188.125 527.284 187.774 523.33 187.167C522.92 190.264 522.687 193.544 522.687 197ZM514.622 185.337C514.107 188.999 513.812 192.89 513.812 197C513.812 201.11 514.107 205.001 514.622 208.663C507.087 210.686 500.848 213.538 496.023 216.283C493.205 210.452 491.625 203.911 491.625 197C491.625 190.089 493.205 183.548 496.022 177.717C500.847 180.461 507.087 183.314 514.622 185.337ZM525.033 178.448C528.461 178.957 532.12 179.25 536.001 179.25C539.881 179.25 543.54 178.957 546.967 178.448C545.374 172.331 543.164 167.168 540.959 163.034C539.191 159.719 537.43 157.072 536 155.136C534.57 157.072 532.809 159.719 531.041 163.033C528.836 167.168 526.626 172.331 525.033 178.448ZM557.378 185.338C557.893 189 558.187 192.891 558.187 197C558.187 201.11 557.893 205 557.378 208.662C564.912 210.686 571.152 213.538 575.978 216.283C578.795 210.452 580.375 203.91 580.375 197C580.375 190.09 578.795 183.548 575.978 177.717C571.153 180.462 564.913 183.314 557.378 185.338ZM571.332 170.149C567.229 172.46 561.974 174.854 555.658 176.607C553.862 169.565 551.329 163.616 548.791 158.857C547.772 156.949 546.753 155.23 545.778 153.706C556.132 156.034 565.116 161.981 571.332 170.149ZM516.343 176.607C510.026 174.854 504.771 172.459 500.668 170.149C506.884 161.981 515.868 156.034 526.221 153.706C525.247 155.23 524.228 156.949 523.21 158.857C520.671 163.616 518.138 169.564 516.343 176.607ZM555.658 217.393C553.862 224.436 551.329 230.384 548.791 235.143C547.772 237.051 546.753 238.77 545.778 240.294C556.132 237.966 565.116 232.018 571.333 223.851C567.229 221.541 561.975 219.146 555.658 217.393ZM536 250.25C565.409 250.25 589.25 226.409 589.25 197C589.25 167.591 565.409 143.75 536 143.75C506.591 143.75 482.75 167.591 482.75 197C482.75 226.409 506.591 250.25 536 250.25Z" fill="#7DBEA7"/>
</g>
<circle cx="587.398" cy="65.864" r="6.85864" fill="white"/>
<rect x="460.513" y="59.0054" width="109.738" height="13.7173" rx="6.85864" fill="white"/>
</g>
<path d="M118.383 165L104.926 119.877H113.136L120.296 143.704C120.975 146.173 121.654 148.704 122.333 152.654C123.074 148.642 123.753 146.296 124.555 143.704L131.654 119.877H140.358L147.333 143.704C148.074 146.235 148.753 148.827 149.493 152.654C150.358 148.457 150.975 146.05 151.654 143.766L158.938 119.877H166.962L153.259 165H145.605L135.975 132.161L126.16 165H118.383ZM181.028 165.802C171.954 165.802 165.596 159.198 165.596 149.753C165.596 140.185 171.831 133.581 180.781 133.581C189.917 133.581 195.719 139.692 195.719 149.198V151.482L172.757 151.543C173.312 156.914 176.152 159.63 181.151 159.63C185.287 159.63 188.003 158.025 188.867 155.124H195.843C194.546 161.79 188.991 165.802 181.028 165.802ZM180.843 139.753C176.398 139.753 173.682 142.161 172.942 146.729H188.25C188.25 142.531 185.349 139.753 180.843 139.753ZM208.722 165H201.746V119.075H209.277V138.951C211.252 135.556 215.326 133.519 219.956 133.519C228.66 133.519 233.968 140.309 233.968 149.938C233.968 159.321 228.228 165.802 219.462 165.802C214.894 165.802 211.006 163.765 209.215 160.247L208.722 165ZM209.339 149.63C209.339 155.124 212.734 158.889 217.919 158.889C223.228 158.889 226.376 155.062 226.376 149.63C226.376 144.198 223.228 140.309 217.919 140.309C212.734 140.309 209.339 144.136 209.339 149.63ZM273.948 165H257.713V119.877H273.515C286.849 119.877 296.046 129.074 296.046 142.531C296.046 155.803 287.034 165 273.948 165ZM272.775 127.161H265.614V157.716H273.207C282.219 157.716 287.713 151.914 287.713 142.531C287.713 132.963 282.096 127.161 272.775 127.161ZM315.937 165.802C306.863 165.802 300.505 159.198 300.505 149.753C300.505 140.185 306.739 133.581 315.69 133.581C324.826 133.581 330.628 139.692 330.628 149.198V151.482L307.665 151.543C308.221 156.914 311.06 159.63 316.06 159.63C320.196 159.63 322.912 158.025 323.776 155.124H330.752C329.455 161.79 323.9 165.802 315.937 165.802ZM315.752 139.753C311.307 139.753 308.591 142.161 307.851 146.729H323.159C323.159 142.531 320.258 139.753 315.752 139.753ZM334.31 155.741H341.47C341.532 158.395 343.507 160.062 346.964 160.062C350.482 160.062 352.396 158.642 352.396 156.42C352.396 154.877 351.593 153.766 348.877 153.148L343.384 151.852C337.89 150.617 335.236 148.025 335.236 143.148C335.236 137.161 340.297 133.581 347.334 133.581C354.186 133.581 358.816 137.531 358.877 143.457H351.717C351.655 140.864 349.927 139.198 347.026 139.198C344.063 139.198 342.334 140.556 342.334 142.84C342.334 144.568 343.692 145.679 346.285 146.296L351.779 147.593C356.902 148.766 359.495 151.111 359.495 155.803C359.495 161.975 354.248 165.802 346.717 165.802C339.124 165.802 334.31 161.728 334.31 155.741ZM368.994 128.395C366.401 128.395 364.364 126.358 364.364 123.828C364.364 121.297 366.401 119.321 368.994 119.321C371.463 119.321 373.5 121.297 373.5 123.828C373.5 126.358 371.463 128.395 368.994 128.395ZM365.228 165V134.506H372.759V165H365.228ZM378.811 149.074C378.811 140.185 384.614 133.519 393.317 133.519C397.885 133.519 401.466 135.432 403.256 138.704L403.688 134.506H410.663V163.457C410.663 173.642 404.552 180 394.675 180C385.91 180 379.923 175 378.997 166.852H386.527C387.021 170.802 390.046 173.148 394.675 173.148C399.861 173.148 403.194 169.876 403.194 164.815V159.753C401.28 162.593 397.515 164.383 393.132 164.383C384.49 164.383 378.811 157.901 378.811 149.074ZM386.404 148.889C386.404 154.012 389.676 157.84 394.614 157.84C399.799 157.84 403.009 154.198 403.009 148.889C403.009 143.704 399.861 140.124 394.614 140.124C389.614 140.124 386.404 143.889 386.404 148.889ZM425.987 165H418.457V134.506H425.432L426.049 138.457C427.963 135.371 431.666 133.581 435.802 133.581C443.456 133.581 447.407 138.334 447.407 146.235V165H439.876V148.025C439.876 142.901 437.345 140.432 433.456 140.432C428.827 140.432 425.987 143.642 425.987 148.58V165Z" fill="white"/>
<path d="M116.288 221.352C109.696 221.352 105.312 216.616 105.312 209.448C105.312 202.312 109.824 197.48 116.448 197.48C121.664 197.48 125.664 200.584 126.528 205.32H123.168C122.304 202.312 119.712 200.488 116.352 200.488C111.68 200.488 108.608 204.008 108.608 209.416C108.608 214.824 111.68 218.344 116.352 218.344C119.744 218.344 122.432 216.52 123.296 213.672H126.624C125.632 218.28 121.504 221.352 116.288 221.352ZM138.917 205.224V207.976H137.573C134.725 207.976 132.965 209.704 132.965 212.712V221H129.957V205.384H132.773L132.965 207.752C133.605 206.12 135.173 205.032 137.317 205.032C137.861 205.032 138.309 205.096 138.917 205.224ZM147.928 221.384C143.32 221.384 140.152 218.056 140.152 213.192C140.152 208.296 143.256 204.904 147.8 204.904C152.248 204.904 155.16 207.976 155.16 212.616V213.736L143.064 213.768C143.288 217.064 145.016 218.888 147.992 218.888C150.328 218.888 151.864 217.928 152.376 216.136H155.192C154.424 219.496 151.8 221.384 147.928 221.384ZM147.8 207.432C145.176 207.432 143.512 209 143.128 211.752H152.152C152.152 209.16 150.456 207.432 147.8 207.432ZM162.94 221.384C159.58 221.384 157.596 219.496 157.596 216.648C157.596 213.768 159.74 211.976 163.42 211.688L168.348 211.304V210.856C168.348 208.232 166.78 207.304 164.668 207.304C162.14 207.304 160.7 208.424 160.7 210.312H158.076C158.076 207.048 160.764 204.904 164.796 204.904C168.668 204.904 171.292 206.952 171.292 211.176V221H168.732L168.412 218.472C167.612 220.264 165.468 221.384 162.94 221.384ZM163.804 219.048C166.652 219.048 168.38 217.192 168.38 214.248V213.416L164.38 213.736C161.724 213.992 160.636 215.016 160.636 216.552C160.636 218.216 161.852 219.048 163.804 219.048ZM179.623 221H176.615V207.88H173.543V205.352H176.615V200.456H179.623V205.352H182.695V207.88H179.623V221ZM186.867 201.64C185.779 201.64 184.883 200.744 184.883 199.656C184.883 198.536 185.779 197.672 186.867 197.672C187.955 197.672 188.851 198.536 188.851 199.656C188.851 200.744 187.955 201.64 186.867 201.64ZM185.395 221V205.352H188.403V221H185.395ZM195.778 221H192.77V205.352H195.49L195.81 207.752C196.802 205.96 198.786 204.904 200.994 204.904C205.122 204.904 207.01 207.432 207.01 211.432V221H204.002V212.104C204.002 208.936 202.53 207.656 200.226 207.656C197.41 207.656 195.778 209.672 195.778 212.712V221ZM210.184 212.776C210.184 208.36 213.032 204.904 217.576 204.904C220.104 204.904 222.056 206.056 223.048 208.008L223.272 205.352H225.96V220.36C225.96 225.288 222.92 228.424 218.12 228.424C213.864 228.424 210.952 226.024 210.376 222.056H213.384C213.768 224.36 215.496 225.704 218.12 225.704C221.064 225.704 222.984 223.784 222.984 220.808V217.672C221.96 219.496 219.912 220.584 217.448 220.584C213 220.584 210.184 217.16 210.184 212.776ZM213.192 212.712C213.192 215.656 215.016 217.96 217.96 217.96C221 217.96 222.856 215.784 222.856 212.712C222.856 209.704 221.064 207.528 217.992 207.528C214.984 207.528 213.192 209.832 213.192 212.712ZM238.027 213.16C238.027 208.328 241.483 204.936 246.187 204.936C250.859 204.936 254.315 208.328 254.315 213.16C254.315 217.992 250.859 221.384 246.187 221.384C241.483 221.384 238.027 217.992 238.027 213.16ZM241.067 213.16C241.067 216.424 243.147 218.696 246.187 218.696C249.195 218.696 251.307 216.424 251.307 213.16C251.307 209.896 249.195 207.624 246.187 207.624C243.147 207.624 241.067 209.896 241.067 213.16ZM261.31 221L255.006 205.352H258.206L261.63 214.088C262.174 215.56 262.622 216.872 262.878 217.832C263.134 216.808 263.646 215.464 264.19 214.088L267.678 205.352H270.814L264.286 221H261.31ZM279.241 221.384C274.633 221.384 271.465 218.056 271.465 213.192C271.465 208.296 274.569 204.904 279.113 204.904C283.561 204.904 286.472 207.976 286.472 212.616V213.736L274.377 213.768C274.601 217.064 276.329 218.888 279.305 218.888C281.641 218.888 283.177 217.928 283.689 216.136H286.505C285.737 219.496 283.113 221.384 279.241 221.384ZM279.113 207.432C276.489 207.432 274.825 209 274.441 211.752H283.465C283.465 209.16 281.769 207.432 279.113 207.432ZM298.792 205.224V207.976H297.448C294.6 207.976 292.84 209.704 292.84 212.712V221H289.832V205.384H292.648L292.84 207.752C293.48 206.12 295.048 205.032 297.192 205.032C297.736 205.032 298.184 205.096 298.792 205.224ZM305.565 221.384C302.205 221.384 300.221 219.496 300.221 216.648C300.221 213.768 302.365 211.976 306.045 211.688L310.973 211.304V210.856C310.973 208.232 309.405 207.304 307.293 207.304C304.765 207.304 303.325 208.424 303.325 210.312H300.701C300.701 207.048 303.389 204.904 307.421 204.904C311.293 204.904 313.917 206.952 313.917 211.176V221H311.357L311.037 218.472C310.237 220.264 308.093 221.384 305.565 221.384ZM306.429 219.048C309.277 219.048 311.005 217.192 311.005 214.248V213.416L307.005 213.736C304.349 213.992 303.261 215.016 303.261 216.552C303.261 218.216 304.477 219.048 306.429 219.048ZM321.154 221H318.146V197.448H321.154V221ZM328.654 221H325.646V197.448H328.654V221ZM344.904 221H341.896V197.448H344.904V221ZM348.308 213.16C348.308 208.328 351.764 204.936 356.468 204.936C361.14 204.936 364.596 208.328 364.596 213.16C364.596 217.992 361.14 221.384 356.468 221.384C351.764 221.384 348.308 217.992 348.308 213.16ZM351.348 213.16C351.348 216.424 353.428 218.696 356.468 218.696C359.476 218.696 361.588 216.424 361.588 213.16C361.588 209.896 359.476 207.624 356.468 207.624C353.428 207.624 351.348 209.896 351.348 213.16ZM366.902 213.16C366.902 208.328 370.358 204.936 375.062 204.936C379.734 204.936 383.19 208.328 383.19 213.16C383.19 217.992 379.734 221.384 375.062 221.384C370.358 221.384 366.902 217.992 366.902 213.16ZM369.942 213.16C369.942 216.424 372.022 218.696 375.062 218.696C378.07 218.696 380.182 216.424 380.182 213.16C380.182 209.896 378.07 207.624 375.062 207.624C372.022 207.624 369.942 209.896 369.942 213.16ZM389.592 221H386.584V197.448H389.592V212.712L396.536 205.352H400.312L394.328 211.592L400.28 221H396.824L392.248 213.768L389.592 216.552V221ZM416.096 221.384C412.736 221.384 410.752 219.496 410.752 216.648C410.752 213.768 412.896 211.976 416.576 211.688L421.504 211.304V210.856C421.504 208.232 419.936 207.304 417.824 207.304C415.296 207.304 413.856 208.424 413.856 210.312H411.232C411.232 207.048 413.92 204.904 417.952 204.904C421.824 204.904 424.448 206.952 424.448 211.176V221H421.888L421.568 218.472C420.768 220.264 418.624 221.384 416.096 221.384ZM416.96 219.048C419.808 219.048 421.536 217.192 421.536 214.248V213.416L417.536 213.736C414.88 213.992 413.792 215.016 413.792 216.552C413.792 218.216 415.008 219.048 416.96 219.048ZM431.622 221H428.614V205.352H431.334L431.654 207.752C432.646 205.96 434.63 204.904 436.838 204.904C440.966 204.904 442.854 207.432 442.854 211.432V221H439.846V212.104C439.846 208.936 438.374 207.656 436.07 207.656C433.254 207.656 431.622 209.672 431.622 212.712V221ZM453.292 221.384C448.748 221.384 445.996 217.992 445.996 213.224C445.996 208.424 448.78 204.904 453.42 204.904C455.82 204.904 457.836 205.96 458.892 207.88V197.448H461.868V221H459.18L458.924 218.152C457.9 220.296 455.788 221.384 453.292 221.384ZM453.9 218.664C456.972 218.664 458.86 216.392 458.86 213.128C458.86 209.928 456.972 207.624 453.9 207.624C450.828 207.624 449.036 209.928 449.036 213.128C449.036 216.36 450.828 218.664 453.9 218.664ZM473.293 205.352H475.597V202.856C475.597 199.016 477.709 197.448 480.557 197.448C481.133 197.448 481.805 197.48 482.413 197.576V200.168H481.069C479.117 200.168 478.605 201.16 478.605 202.856V205.352H482.317V207.88H478.605V221H475.597V207.88H473.293V205.352ZM491.397 221.384C486.789 221.384 483.621 218.056 483.621 213.192C483.621 208.296 486.725 204.904 491.269 204.904C495.717 204.904 498.629 207.976 498.629 212.616V213.736L486.533 213.768C486.757 217.064 488.485 218.888 491.461 218.888C493.797 218.888 495.333 217.928 495.845 216.136H498.661C497.893 219.496 495.269 221.384 491.397 221.384ZM491.269 207.432C488.645 207.432 486.981 209 486.597 211.752H495.621C495.621 209.16 493.925 207.432 491.269 207.432ZM508.741 221.384C504.133 221.384 500.965 218.056 500.965 213.192C500.965 208.296 504.069 204.904 508.613 204.904C513.061 204.904 515.972 207.976 515.972 212.616V213.736L503.877 213.768C504.101 217.064 505.829 218.888 508.805 218.888C511.141 218.888 512.677 217.928 513.189 216.136H516.005C515.237 219.496 512.613 221.384 508.741 221.384ZM508.613 207.432C505.989 207.432 504.325 209 503.941 211.752H512.965C512.965 209.16 511.269 207.432 508.613 207.432ZM522.404 221H519.396V197.448H522.404V221ZM531.344 219.752C531.344 222.056 529.616 223.976 527.344 224.264V222.92C528.656 222.696 529.584 221.832 529.584 220.84C529.36 220.968 529.104 221.032 528.72 221.032C527.664 221.032 526.768 220.264 526.768 219.08C526.768 217.8 527.632 216.872 528.912 216.872C530.256 216.872 531.344 217.992 531.344 219.752ZM116.992 239.352H119.968V255H117.28L116.96 252.632C116.064 254.264 113.984 255.384 111.68 255.384C108.032 255.384 105.984 252.92 105.984 249.08V239.352H108.992V248.088C108.992 251.448 110.432 252.728 112.736 252.728C115.488 252.728 116.992 250.968 116.992 247.608V239.352ZM122.74 250.456H125.62C125.62 252.056 126.836 253.016 128.82 253.016C130.932 253.016 132.148 252.152 132.148 250.712C132.148 249.656 131.636 249.016 130.004 248.6L127.252 247.96C124.468 247.288 123.156 245.912 123.156 243.608C123.156 240.728 125.588 238.904 129.044 238.904C132.468 238.904 134.708 240.824 134.772 243.8H131.892C131.828 242.232 130.772 241.24 128.948 241.24C127.06 241.24 126.004 242.072 126.004 243.512C126.004 244.568 126.772 245.272 128.308 245.656L131.06 246.328C133.716 246.968 135.028 248.184 135.028 250.52C135.028 253.496 132.468 255.384 128.756 255.384C125.076 255.384 122.74 253.432 122.74 250.456ZM142.94 255.384C139.58 255.384 137.596 253.496 137.596 250.648C137.596 247.768 139.74 245.976 143.42 245.688L148.348 245.304V244.856C148.348 242.232 146.78 241.304 144.668 241.304C142.14 241.304 140.7 242.424 140.7 244.312H138.076C138.076 241.048 140.764 238.904 144.796 238.904C148.668 238.904 151.292 240.952 151.292 245.176V255H148.732L148.412 252.472C147.612 254.264 145.468 255.384 142.94 255.384ZM143.804 253.048C146.652 253.048 148.38 251.192 148.38 248.248V247.416L144.38 247.736C141.724 247.992 140.636 249.016 140.636 250.552C140.636 252.216 141.852 253.048 143.804 253.048ZM158.177 255H155.457V231.448H158.465V242.04C159.489 239.992 161.601 238.904 164.161 238.904C168.641 238.904 171.329 242.424 171.329 247.256C171.329 251.992 168.513 255.384 163.969 255.384C161.505 255.384 159.425 254.296 158.401 252.152L158.177 255ZM158.497 247.128C158.497 250.392 160.353 252.664 163.425 252.664C166.497 252.664 168.321 250.36 168.321 247.128C168.321 243.928 166.497 241.624 163.425 241.624C160.353 241.624 158.497 243.928 158.497 247.128ZM176.117 235.64C175.029 235.64 174.133 234.744 174.133 233.656C174.133 232.536 175.029 231.672 176.117 231.672C177.205 231.672 178.101 232.536 178.101 233.656C178.101 234.744 177.205 235.64 176.117 235.64ZM174.645 255V239.352H177.653V255H174.645ZM185.092 255H182.084V231.448H185.092V255ZM190.992 235.64C189.904 235.64 189.008 234.744 189.008 233.656C189.008 232.536 189.904 231.672 190.992 231.672C192.08 231.672 192.976 232.536 192.976 233.656C192.976 234.744 192.08 235.64 190.992 235.64ZM189.52 255V239.352H192.528V255H189.52ZM201.311 255H198.303V241.88H195.231V239.352H198.303V234.456H201.311V239.352H204.383V241.88H201.311V255ZM205.578 262.008V259.544H207.594C209.034 259.544 210.186 259.32 210.922 257.336L211.466 255.832L205.162 239.352H208.33L212.874 251.96L217.514 239.352H220.618L213.226 258.52C212.17 261.208 210.602 262.328 208.202 262.328C207.21 262.328 206.378 262.2 205.578 262.008ZM224.876 253.752C224.876 256.056 223.148 257.976 220.876 258.264V256.92C222.188 256.696 223.116 255.832 223.116 254.84C222.891 254.968 222.636 255.032 222.252 255.032C221.196 255.032 220.299 254.264 220.299 253.08C220.299 251.8 221.164 250.872 222.444 250.872C223.788 250.872 224.876 251.992 224.876 253.752ZM242.533 255.384C239.173 255.384 237.189 253.496 237.189 250.648C237.189 247.768 239.333 245.976 243.013 245.688L247.941 245.304V244.856C247.941 242.232 246.373 241.304 244.261 241.304C241.733 241.304 240.293 242.424 240.293 244.312H237.669C237.669 241.048 240.357 238.904 244.389 238.904C248.261 238.904 250.885 240.952 250.885 245.176V255H248.325L248.005 252.472C247.205 254.264 245.061 255.384 242.533 255.384ZM243.397 253.048C246.245 253.048 247.973 251.192 247.973 248.248V247.416L243.973 247.736C241.317 247.992 240.229 249.016 240.229 250.552C240.229 252.216 241.445 253.048 243.397 253.048ZM258.059 255H255.051V239.352H257.771L258.091 241.752C259.083 239.96 261.067 238.904 263.275 238.904C267.403 238.904 269.291 241.432 269.291 245.432V255H266.283V246.104C266.283 242.936 264.811 241.656 262.507 241.656C259.691 241.656 258.059 243.672 258.059 246.712V255ZM279.729 255.384C275.185 255.384 272.433 251.992 272.433 247.224C272.433 242.424 275.217 238.904 279.857 238.904C282.257 238.904 284.273 239.96 285.329 241.88V231.448H288.305V255H285.617L285.361 252.152C284.337 254.296 282.225 255.384 279.729 255.384ZM280.337 252.664C283.409 252.664 285.297 250.392 285.297 247.128C285.297 243.928 283.409 241.624 280.337 241.624C277.265 241.624 275.473 243.928 275.473 247.128C275.473 250.36 277.265 252.664 280.337 252.664ZM312.211 239.352H315.187V255H312.499L312.179 252.632C311.283 254.264 309.203 255.384 306.899 255.384C303.251 255.384 301.203 252.92 301.203 249.08V239.352H304.211V248.088C304.211 251.448 305.651 252.728 307.955 252.728C310.707 252.728 312.211 250.968 312.211 247.608V239.352ZM317.959 250.456H320.839C320.839 252.056 322.055 253.016 324.039 253.016C326.151 253.016 327.367 252.152 327.367 250.712C327.367 249.656 326.855 249.016 325.223 248.6L322.471 247.96C319.687 247.288 318.375 245.912 318.375 243.608C318.375 240.728 320.807 238.904 324.263 238.904C327.687 238.904 329.927 240.824 329.991 243.8H327.111C327.047 242.232 325.991 241.24 324.167 241.24C322.279 241.24 321.223 242.072 321.223 243.512C321.223 244.568 321.991 245.272 323.527 245.656L326.279 246.328C328.935 246.968 330.247 248.184 330.247 250.52C330.247 253.496 327.687 255.384 323.975 255.384C320.295 255.384 317.959 253.432 317.959 250.456ZM340.334 255.384C335.726 255.384 332.558 252.056 332.558 247.192C332.558 242.296 335.662 238.904 340.206 238.904C344.654 238.904 347.566 241.976 347.566 246.616V247.736L335.47 247.768C335.694 251.064 337.422 252.888 340.398 252.888C342.734 252.888 344.27 251.928 344.782 250.136H347.598C346.83 253.496 344.206 255.384 340.334 255.384ZM340.206 241.432C337.582 241.432 335.918 243 335.534 245.752H344.558C344.558 243.16 342.862 241.432 340.206 241.432ZM359.886 239.224V241.976H358.542C355.694 241.976 353.934 243.704 353.934 246.712V255H350.926V239.384H353.742L353.934 241.752C354.574 240.12 356.142 239.032 358.286 239.032C358.83 239.032 359.278 239.096 359.886 239.224ZM378.209 255.384C373.601 255.384 370.433 252.056 370.433 247.192C370.433 242.296 373.537 238.904 378.081 238.904C382.529 238.904 385.441 241.976 385.441 246.616V247.736L373.345 247.768C373.569 251.064 375.297 252.888 378.273 252.888C380.609 252.888 382.145 251.928 382.657 250.136H385.473C384.705 253.496 382.081 255.384 378.209 255.384ZM378.081 241.432C375.457 241.432 373.793 243 373.409 245.752H382.433C382.433 243.16 380.737 241.432 378.081 241.432ZM389.807 255H386.351L391.823 247.256L386.383 239.352H389.871L393.839 245.176L397.711 239.352H401.135L395.695 247.256L401.039 255H397.551L393.647 249.272L389.807 255ZM403.645 262.008V239.352H406.365L406.589 242.168C407.645 240.024 409.757 238.904 412.253 238.904C416.733 238.904 419.517 242.264 419.517 247.064C419.517 251.832 416.893 255.416 412.253 255.416C409.757 255.416 407.677 254.36 406.653 252.44V262.008H403.645ZM406.685 247.192C406.685 250.392 408.541 252.696 411.613 252.696C414.685 252.696 416.509 250.392 416.509 247.192C416.509 243.96 414.685 241.656 411.613 241.656C408.541 241.656 406.685 243.928 406.685 247.192ZM429.584 255.384C424.976 255.384 421.808 252.056 421.808 247.192C421.808 242.296 424.912 238.904 429.456 238.904C433.904 238.904 436.816 241.976 436.816 246.616V247.736L424.72 247.768C424.944 251.064 426.672 252.888 429.648 252.888C431.984 252.888 433.52 251.928 434.032 250.136H436.848C436.08 253.496 433.456 255.384 429.584 255.384ZM429.456 241.432C426.832 241.432 425.168 243 424.784 245.752H433.808C433.808 243.16 432.112 241.432 429.456 241.432ZM449.136 239.224V241.976H447.792C444.944 241.976 443.184 243.704 443.184 246.712V255H440.176V239.384H442.992L443.184 241.752C443.824 240.12 445.392 239.032 447.536 239.032C448.08 239.032 448.528 239.096 449.136 239.224ZM453.429 235.64C452.341 235.64 451.445 234.744 451.445 233.656C451.445 232.536 452.341 231.672 453.429 231.672C454.517 231.672 455.413 232.536 455.413 233.656C455.413 234.744 454.517 235.64 453.429 235.64ZM451.957 255V239.352H454.965V255H451.957ZM466.084 255.384C461.476 255.384 458.308 252.056 458.308 247.192C458.308 242.296 461.412 238.904 465.956 238.904C470.404 238.904 473.316 241.976 473.316 246.616V247.736L461.22 247.768C461.444 251.064 463.172 252.888 466.148 252.888C468.484 252.888 470.02 251.928 470.532 250.136H473.348C472.58 253.496 469.956 255.384 466.084 255.384ZM465.956 241.432C463.332 241.432 461.668 243 461.284 245.752H470.308C470.308 243.16 468.612 241.432 465.956 241.432ZM479.684 255H476.676V239.352H479.396L479.716 241.752C480.708 239.96 482.692 238.904 484.9 238.904C489.028 238.904 490.916 241.432 490.916 245.432V255H487.908V246.104C487.908 242.936 486.436 241.656 484.132 241.656C481.316 241.656 479.684 243.672 479.684 246.712V255ZM494.058 247.192C494.058 242.296 497.162 238.904 501.738 238.904C505.674 238.904 508.426 241.144 508.97 244.632H505.962C505.45 242.648 503.85 241.592 501.834 241.592C498.986 241.592 497.034 243.768 497.034 247.16C497.034 250.52 498.858 252.696 501.706 252.696C503.85 252.696 505.45 251.576 505.994 249.72H509.002C508.394 253.112 505.482 255.384 501.706 255.384C497.098 255.384 494.058 252.12 494.058 247.192ZM518.928 255.384C514.32 255.384 511.152 252.056 511.152 247.192C511.152 242.296 514.256 238.904 518.8 238.904C523.248 238.904 526.16 241.976 526.16 246.616V247.736L514.064 247.768C514.288 251.064 516.016 252.888 518.992 252.888C521.328 252.888 522.864 251.928 523.376 250.136H526.192C525.424 253.496 522.8 255.384 518.928 255.384ZM518.8 241.432C516.176 241.432 514.512 243 514.128 245.752H523.152C523.152 243.16 521.456 241.432 518.8 241.432ZM105.152 281.16C105.152 276.328 108.608 272.936 113.312 272.936C117.984 272.936 121.44 276.328 121.44 281.16C121.44 285.992 117.984 289.384 113.312 289.384C108.608 289.384 105.152 285.992 105.152 281.16ZM108.192 281.16C108.192 284.424 110.272 286.696 113.312 286.696C116.32 286.696 118.432 284.424 118.432 281.16C118.432 277.896 116.32 275.624 113.312 275.624C110.272 275.624 108.192 277.896 108.192 281.16ZM123.012 273.352H125.316V270.856C125.316 267.016 127.428 265.448 130.276 265.448C130.852 265.448 131.524 265.48 132.132 265.576V268.168H130.788C128.836 268.168 128.324 269.16 128.324 270.856V273.352H132.036V275.88H128.324V289H125.316V275.88H123.012V273.352ZM148.158 289.384C144.798 289.384 142.814 287.496 142.814 284.648C142.814 281.768 144.958 279.976 148.638 279.688L153.566 279.304V278.856C153.566 276.232 151.998 275.304 149.886 275.304C147.358 275.304 145.918 276.424 145.918 278.312H143.294C143.294 275.048 145.982 272.904 150.014 272.904C153.886 272.904 156.51 274.952 156.51 279.176V289H153.95L153.63 286.472C152.83 288.264 150.686 289.384 148.158 289.384ZM149.022 287.048C151.87 287.048 153.598 285.192 153.598 282.248V281.416L149.598 281.736C146.942 281.992 145.854 283.016 145.854 284.552C145.854 286.216 147.07 287.048 149.022 287.048ZM175.698 289.384C171.154 289.384 168.402 285.992 168.402 281.224C168.402 276.424 171.186 272.904 175.826 272.904C178.226 272.904 180.242 273.96 181.298 275.88V265.448H184.274V289H181.586L181.33 286.152C180.306 288.296 178.194 289.384 175.698 289.384ZM176.306 286.664C179.378 286.664 181.266 284.392 181.266 281.128C181.266 277.928 179.378 275.624 176.306 275.624C173.234 275.624 171.442 277.928 171.442 281.128C171.442 284.36 173.234 286.664 176.306 286.664ZM190.086 269.64C188.998 269.64 188.102 268.744 188.102 267.656C188.102 266.536 188.998 265.672 190.086 265.672C191.174 265.672 192.07 266.536 192.07 267.656C192.07 268.744 191.174 269.64 190.086 269.64ZM188.614 289V273.352H191.622V289H188.614ZM194.997 280.776C194.997 276.36 197.845 272.904 202.389 272.904C204.917 272.904 206.869 274.056 207.861 276.008L208.085 273.352H210.773V288.36C210.773 293.288 207.733 296.424 202.933 296.424C198.677 296.424 195.765 294.024 195.189 290.056H198.197C198.581 292.36 200.309 293.704 202.933 293.704C205.877 293.704 207.797 291.784 207.797 288.808V285.672C206.773 287.496 204.725 288.584 202.26 288.584C197.812 288.584 194.997 285.16 194.997 280.776ZM198.005 280.712C198.005 283.656 199.829 285.96 202.773 285.96C205.813 285.96 207.669 283.784 207.669 280.712C207.669 277.704 205.877 275.528 202.805 275.528C199.797 275.528 198.005 277.832 198.005 280.712ZM216.586 269.64C215.498 269.64 214.602 268.744 214.602 267.656C214.602 266.536 215.498 265.672 216.586 265.672C217.674 265.672 218.57 266.536 218.57 267.656C218.57 268.744 217.674 269.64 216.586 269.64ZM215.114 289V273.352H218.122V289H215.114ZM226.905 289H223.897V275.88H220.825V273.352H223.897V268.456H226.905V273.352H229.977V275.88H226.905V289ZM237.065 289.384C233.705 289.384 231.721 287.496 231.721 284.648C231.721 281.768 233.865 279.976 237.545 279.688L242.473 279.304V278.856C242.473 276.232 240.905 275.304 238.793 275.304C236.265 275.304 234.825 276.424 234.825 278.312H232.201C232.201 275.048 234.889 272.904 238.921 272.904C242.793 272.904 245.417 274.952 245.417 279.176V289H242.857L242.537 286.472C241.737 288.264 239.593 289.384 237.065 289.384ZM237.929 287.048C240.777 287.048 242.505 285.192 242.505 282.248V281.416L238.505 281.736C235.849 281.992 234.761 283.016 234.761 284.552C234.761 286.216 235.977 287.048 237.929 287.048ZM252.654 289H249.646V265.448H252.654V289ZM267.304 269.64C266.216 269.64 265.32 268.744 265.32 267.656C265.32 266.536 266.216 265.672 267.304 265.672C268.392 265.672 269.288 266.536 269.288 267.656C269.288 268.744 268.392 269.64 267.304 269.64ZM265.832 289V273.352H268.84V289H265.832ZM276.215 289H273.207V273.352H275.927L276.247 275.752C277.239 273.96 279.223 272.904 281.431 272.904C285.559 272.904 287.447 275.432 287.447 279.432V289H284.439V280.104C284.439 276.936 282.967 275.656 280.663 275.656C277.847 275.656 276.215 277.672 276.215 280.712V289ZM296.03 289H293.022V275.88H289.95V273.352H293.022V268.456H296.03V273.352H299.102V275.88H296.03V289ZM308.397 289.384C303.789 289.384 300.621 286.056 300.621 281.192C300.621 276.296 303.725 272.904 308.269 272.904C312.717 272.904 315.629 275.976 315.629 280.616V281.736L303.533 281.768C303.757 285.064 305.485 286.888 308.461 286.888C310.797 286.888 312.333 285.928 312.845 284.136H315.661C314.893 287.496 312.269 289.384 308.397 289.384ZM308.269 275.432C305.645 275.432 303.981 277 303.597 279.752H312.621C312.621 277.16 310.925 275.432 308.269 275.432ZM327.949 273.224V275.976H326.605C323.757 275.976 321.997 277.704 321.997 280.712V289H318.989V273.384H321.805L321.997 275.752C322.637 274.12 324.205 273.032 326.349 273.032C326.893 273.032 327.341 273.096 327.949 273.224ZM329.731 273.352H332.035V270.856C332.035 267.016 334.147 265.448 336.995 265.448C337.571 265.448 338.243 265.48 338.851 265.576V268.168H337.507C335.555 268.168 335.043 269.16 335.043 270.856V273.352H338.755V275.88H335.043V289H332.035V275.88H329.731V273.352ZM345.627 289.384C342.267 289.384 340.283 287.496 340.283 284.648C340.283 281.768 342.427 279.976 346.107 279.688L351.035 279.304V278.856C351.035 276.232 349.467 275.304 347.355 275.304C344.827 275.304 343.387 276.424 343.387 278.312H340.763C340.763 275.048 343.451 272.904 347.483 272.904C351.355 272.904 353.979 274.952 353.979 279.176V289H351.419L351.099 286.472C350.299 288.264 348.155 289.384 345.627 289.384ZM346.491 287.048C349.339 287.048 351.067 285.192 351.067 282.248V281.416L347.067 281.736C344.411 281.992 343.323 283.016 343.323 284.552C343.323 286.216 344.539 287.048 346.491 287.048ZM357.121 281.192C357.121 276.296 360.225 272.904 364.801 272.904C368.737 272.904 371.489 275.144 372.033 278.632H369.025C368.513 276.648 366.913 275.592 364.897 275.592C362.049 275.592 360.097 277.768 360.097 281.16C360.097 284.52 361.921 286.696 364.769 286.696C366.913 286.696 368.513 285.576 369.057 283.72H372.065C371.457 287.112 368.545 289.384 364.769 289.384C360.161 289.384 357.121 286.12 357.121 281.192ZM381.991 289.384C377.383 289.384 374.215 286.056 374.215 281.192C374.215 276.296 377.319 272.904 381.863 272.904C386.311 272.904 389.222 275.976 389.222 280.616V281.736L377.127 281.768C377.351 285.064 379.079 286.888 382.055 286.888C384.391 286.888 385.927 285.928 386.439 284.136H389.255C388.487 287.496 385.863 289.384 381.991 289.384ZM381.863 275.432C379.239 275.432 377.575 277 377.191 279.752H386.215C386.215 277.16 384.519 275.432 381.863 275.432ZM393.854 289.384C392.606 289.384 391.549 288.36 391.549 287.144C391.549 285.896 392.606 284.872 393.854 284.872C395.07 284.872 396.126 285.896 396.126 287.144C396.126 288.36 395.07 289.384 393.854 289.384Z" fill="white" fill-opacity="0.7"/>
<defs>
<filter id="filter0_d_6_189" x="0.984276" y="0.70681" width="668.717" height="384.084" filterUnits="userSpaceOnUse" color-interpolation-filters="sRGB">
<feFlood flood-opacity="0" result="BackgroundImageFix"/>
<feColorMatrix in="SourceAlpha" type="matrix" values="0 0 0 0 0 0 0 0 0 0 0 0 0 0 0 0 0 0 127 0" result="hardAlpha"/>
<feOffset/>
<feGaussianBlur stdDeviation="17.1466"/>
<feComposite in2="hardAlpha" operator="out"/>
<feColorMatrix type="matrix" values="0 0 0 0 0.411765 0 0 0 0 0.705882 0 0 0 0 0.6 0 0 0 0.4 0"/>
<feBlend mode="normal" in2="BackgroundImageFix" result="effect1_dropShadow_6_189"/>
<feBlend mode="normal" in="SourceGraphic" in2="effect1_dropShadow_6_189" result="shape"/>
</filter>
<linearGradient id="paint0_linear_6_189" x1="612.374" y1="-20.8482" x2="639.657" y2="120.225" gradientUnits="userSpaceOnUse">
<stop stop-color="white"/>
<stop offset="1" stop-color="white" stop-opacity="0.23"/>
</linearGradient>
<linearGradient id="paint1_linear_6_189" x1="64.1206" y1="194.706" x2="120.945" y2="488.53" gradientUnits="userSpaceOnUse">
<stop stop-color="white"/>
<stop offset="1" stop-color="white" stop-opacity="0.23"/>
</linearGradient>
<clipPath id="clip0_6_189">
<rect x="35.2775" y="35" width="600.131" height="315.497" rx="20" fill="white"/>
</clipPath>
</defs>
</svg>
